# Blender v3.1.2 OBJ File: ''
# www.blender.org
mtllib outside.mtl
o Plane
v 0.102326 -0.000000 -0.101000
v 0.899460 -0.000000 -0.101000
v 0.102326 -0.000000 -0.898133
v 0.899460 -0.000000 -0.898133
v 0.046693 -0.000000 -0.045366
v 0.955093 -0.000000 -0.045366
v 0.046693 -0.000000 -0.953767
v 0.955093 -0.000000 -0.953767
vt 1.000000 0.000000
vt 1.000000 1.000000
vt 1.000000 1.000000
vt 1.000000 0.000000
vt 0.000000 1.000000
vt 0.000000 0.000000
vt 0.000000 0.000000
vt 0.000000 1.000000
vn 0.0000 -1.0000 0.0000
usemtl None
s off
f 2/1/1 4/2/1 8/3/1 6/4/1
f 3/5/1 1/6/1 5/7/1 7/8/1
f 4/2/1 3/5/1 7/8/1 8/3/1
f 1/6/1 2/1/1 6/4/1 5/7/1
